<?xml version="1.0" standalone="no"?>
<!DOCTYPE svg PUBLIC "-//W3C//DTD SVG 20010904//EN"
 "http://www.w3.org/TR/2001/REC-SVG-20010904/DTD/svg10.dtd">
<svg version="1.0" xmlns="http://www.w3.org/2000/svg"
 width="512.000000pt" height="512.000000pt" viewBox="0 0 512.000000 512.000000"
 preserveAspectRatio="xMidYMid meet">
<metadata>
Created by potrace 1.11, written by Peter Selinger 2001-2013
</metadata>
<g transform="translate(0.000000,512.000000) scale(0.100000,-0.100000)"
fill="#000000" stroke="none">
<path d="M1904 4210 c-32 -13 -89 -94 -98 -140 -1 -3 -4 -9 -7 -15 -3 -5 -14
-40 -24 -77 -10 -37 -21 -66 -24 -64 -3 2 -6 -10 -7 -27 0 -18 -3 -45 -7 -62
-13 -56 -18 -80 -21 -90 -1 -5 -6 -31 -11 -57 -8 -52 -19 -58 -72 -36 -15 6
-32 12 -38 12 -5 1 -30 8 -55 16 -25 7 -54 15 -65 17 -11 2 -24 8 -29 13 -4 4
-15 6 -22 3 -8 -3 -14 0 -14 6 0 7 -9 21 -20 33 -11 12 -20 28 -20 35 0 7 -4
13 -10 13 -5 0 -10 7 -10 15 0 8 -4 15 -10 15 -5 0 -10 7 -10 15 0 8 -4 15 -8
15 -5 0 -20 15 -33 33 -121 168 -216 247 -309 254 -52 5 -61 3 -88 -22 -44
-39 -63 -96 -69 -208 l-6 -98 -26 6 c-94 20 -524 20 -630 0 -9 -2 -28 -4 -42
-4 -32 -1 -46 -35 -20 -47 9 -4 19 -6 24 -6 11 3 8 -12 -5 -28 -7 -8 -4 -7 8
3 19 16 25 16 63 3 43 -16 44 -16 62 -16 5 0 7 -4 4 -10 -3 -5 0 -7 9 -4 8 3
31 0 51 -6 20 -7 44 -13 53 -15 9 -2 19 -4 22 -5 3 -1 9 -2 14 -1 5 1 6 -6 2
-15 -5 -13 -4 -14 7 -6 15 13 60 5 51 -9 -3 -5 2 -6 10 -3 8 3 27 -1 43 -9 15
-8 34 -12 41 -10 6 3 12 -1 12 -7 0 -7 6 -10 14 -7 7 3 25 -1 40 -8 14 -8 26
-11 26 -8 0 3 12 -2 26 -12 15 -9 23 -11 19 -4 -6 8 -4 10 6 3 8 -4 23 -10 34
-11 10 -2 22 -7 25 -11 3 -4 19 -9 35 -10 28 -4 39 -12 35 -28 -1 -4 4 -11 12
-15 11 -7 10 -11 -2 -19 -8 -5 -10 -10 -5 -10 6 0 11 -33 11 -77 2 -164 14
-519 18 -543 3 -14 7 -47 11 -75 3 -27 11 -77 16 -110 6 -33 11 -73 11 -89 0
-15 10 -65 23 -110 33 -118 45 -181 51 -271 3 -44 7 -85 9 -92 2 -6 -12 -24
-31 -38 -19 -15 -69 -60 -111 -100 -42 -41 -81 -71 -86 -68 -6 3 -7 1 -4 -4 7
-12 -38 -65 -47 -56 -3 4 -6 1 -6 -6 0 -10 -89 -129 -127 -169 -27 -29 -13
-25 99 26 37 17 69 28 72 24 3 -3 6 1 6 8 0 7 3 10 7 7 3 -4 15 0 25 10 10 9
18 13 18 9 0 -3 11 1 25 10 14 9 25 13 25 9 0 -3 7 1 16 10 13 12 19 13 30 4
12 -9 13 -9 9 3 -4 9 4 19 20 26 21 10 25 10 20 0 -4 -7 -1 -6 7 3 7 9 19 14
27 11 9 -3 11 0 6 8 -6 10 -4 12 9 7 10 -4 15 -3 11 3 -3 5 3 14 15 20 18 9
22 5 45 -42 14 -29 23 -58 21 -65 -3 -7 -1 -13 4 -13 6 0 10 -9 10 -19 0 -49
44 -34 47 16 1 20 7 39 14 43 8 6 8 9 -2 13 -10 4 -10 6 -1 6 6 1 12 8 12 16
0 8 5 15 11 15 5 0 7 5 4 10 -3 6 -1 10 5 10 6 0 9 4 5 9 -3 5 -1 12 5 16 5 3
10 15 10 25 0 11 10 29 23 40 20 20 20 21 2 15 -15 -5 -16 -4 -6 3 8 6 10 15
6 22 -5 8 -4 11 2 7 6 -4 14 0 17 9 3 8 10 13 15 10 5 -3 12 1 15 10 3 8 10
13 15 10 4 -3 16 3 26 14 10 11 21 17 26 15 4 -3 11 0 16 7 4 7 18 19 30 25
20 11 24 10 36 -10 7 -12 28 -46 45 -75 18 -30 29 -58 26 -64 -4 -6 -2 -8 3
-5 11 7 47 -38 48 -58 0 -5 6 -11 13 -11 6 -1 16 -2 21 -3 4 0 21 -13 36 -29
16 -15 25 -21 20 -13 -6 11 -4 13 8 8 9 -3 16 -3 15 1 -1 4 2 15 7 25 6 15 10
16 17 5 7 -10 8 -8 7 7 -2 34 1 46 10 41 5 -4 7 3 4 14 -3 12 0 20 6 20 7 0
10 4 6 9 -3 5 1 15 8 23 8 7 12 19 9 27 -3 10 0 11 9 5 12 -7 12 -5 0 9 -8 11
-9 17 -3 17 7 0 9 7 5 17 -4 10 -2 14 5 9 6 -3 11 -14 11 -24 -1 -9 7 -43 16
-75 8 -32 13 -63 9 -69 -4 -7 -3 -8 4 -4 11 7 16 -7 15 -41 -1 -7 3 -10 8 -7
8 5 13 -18 12 -53 -1 -7 3 -11 7 -8 9 5 42 -104 35 -116 -3 -4 -1 -9 5 -11 6
-2 11 -18 13 -36 1 -17 5 -32 8 -32 3 0 11 -28 18 -63 17 -87 18 -95 35 -157
8 -30 17 -68 19 -85 3 -16 10 -52 16 -78 6 -27 8 -53 5 -59 -4 -6 -2 -8 3 -5
13 8 27 -39 17 -56 -4 -7 -4 -9 1 -5 11 11 38 -29 29 -44 -4 -7 -3 -8 4 -4 12
7 35 -28 24 -38 -3 -4 2 -4 13 0 15 6 17 4 12 -12 -7 -18 -6 -18 7 -2 9 12 23
17 44 14 18 -2 29 1 26 6 -3 5 -13 7 -22 3 -13 -5 -13 -2 2 14 15 17 18 36 17
105 -1 62 4 101 20 150 12 36 26 66 31 66 5 0 6 5 2 12 -5 8 -2 9 11 4 16 -6
16 -4 4 11 -12 15 -12 16 3 10 10 -3 20 -1 24 5 4 7 3 8 -4 4 -21 -13 -13 22
8 37 12 8 20 18 19 23 -2 5 5 26 14 48 9 21 17 40 17 41 0 2 19 43 42 92 23
48 42 93 43 100 0 7 9 19 20 27 11 9 14 16 8 16 -7 0 -13 5 -13 11 0 6 7 8 16
5 14 -5 15 -4 4 9 -8 10 -9 15 -1 15 6 0 10 3 10 8 -4 24 3 43 14 39 6 -2 11
-10 9 -16 -1 -7 2 -9 8 -6 8 5 6 13 -5 25 -17 19 -12 46 6 35 5 -4 9 -2 9 4 0
5 -6 12 -12 14 -10 4 -10 6 0 6 7 1 11 5 8 10 -3 4 3 33 14 62 29 84 46 169
46 227 -1 28 3 52 7 52 5 0 5 6 0 13 -14 22 -11 36 5 30 15 -4 15 -3 2 6 -8 6
-16 21 -17 33 -1 13 -4 40 -7 61 -5 35 -3 37 19 34 13 -1 27 -6 31 -10 4 -4
12 -7 18 -7 6 0 -2 9 -19 20 l-30 20 28 -2 c15 -1 27 -5 27 -9 0 -4 18 -10 40
-14 22 -4 40 -11 40 -16 0 -4 -8 -6 -17 -3 -15 5 -15 4 -3 -4 9 -7 18 -7 26
-1 7 6 21 6 38 -1 19 -7 26 -6 26 3 0 8 3 8 9 -2 6 -10 13 -10 28 -2 11 5 23
7 27 4 3 -3 6 -1 6 6 0 8 6 11 16 7 8 -3 12 -2 9 4 -3 6 3 10 15 10 12 0 19 3
17 8 -3 4 1 12 8 19 11 10 15 10 18 0 3 -7 6 -2 6 11 1 12 6 22 11 22 6 0 10
7 10 15 0 8 5 15 10 15 6 0 9 3 8 8 -1 4 2 17 6 30 l8 23 23 -23 c12 -12 20
-29 17 -37 -3 -9 -1 -12 6 -7 6 3 22 -5 35 -18 14 -14 28 -22 31 -19 3 4 6 -2
6 -13 0 -11 3 -15 8 -8 7 11 52 14 52 3 0 -3 23 0 52 7 57 15 47 19 123 -50 6
-5 4 -6 -5 -1 -8 5 -12 4 -7 0 4 -5 17 -10 30 -11 12 -2 33 -5 47 -7 14 -2 37
0 53 4 20 6 26 5 20 -4 -3 -7 4 -3 16 8 13 11 24 19 25 17 0 -2 15 2 31 9 39
15 85 18 85 6 0 -6 3 -8 6 -4 6 5 104 -40 104 -49 0 -3 -10 0 -22 6 -23 11
-23 11 1 -9 13 -12 19 -21 15 -21 -5 0 -10 -17 -10 -37 -4 -103 -11 -191 -18
-201 -4 -7 -2 -12 4 -12 6 0 9 -3 6 -8 -2 -4 -7 -39 -11 -77 -4 -39 -9 -73
-11 -77 -3 -4 -7 -26 -10 -50 -3 -24 -8 -50 -11 -58 -10 -27 -12 -270 -2 -270
5 0 9 -6 9 -13 0 -16 66 -87 81 -87 5 0 8 -4 5 -9 -3 -5 4 -11 15 -14 14 -4
20 -11 16 -21 -4 -9 -3 -15 1 -13 11 3 72 -49 66 -57 -2 -3 -1 -4 2 -1 4 2 23
-4 44 -15 21 -11 39 -17 42 -15 2 2 20 5 40 7 20 1 35 5 33 8 -3 4 5 17 16 28
11 12 15 22 10 22 -6 0 -8 7 -5 15 4 8 11 12 17 8 6 -4 7 -1 1 8 -13 22 -13
35 2 107 42 194 52 279 52 466 1 103 3 190 5 193 8 8 68 -27 74 -43 5 -13 7
-13 14 -2 7 10 9 10 9 1 0 -7 6 -13 13 -13 7 0 23 -9 35 -20 12 -12 22 -18 22
-15 0 5 100 -45 110 -55 3 -3 22 -13 43 -22 20 -10 37 -22 37 -28 0 -5 3 -9 8
-9 17 3 31 -2 44 -14 7 -6 39 -25 71 -41 31 -15 57 -33 57 -38 0 -5 4 -7 9 -3
5 3 16 -1 24 -9 26 -27 61 -29 75 -5 8 11 9 18 4 15 -6 -3 -16 0 -24 7 -11 11
-229 171 -307 225 -13 9 -32 25 -43 35 -10 9 -25 17 -33 17 -8 0 -15 5 -15 10
0 6 15 10 33 10 49 0 79 35 75 89 -2 22 -6 41 -10 41 -5 0 -8 6 -8 13 0 18
-55 131 -96 198 -21 33 -33 63 -28 70 4 7 3 10 -3 6 -12 -7 -29 41 -38 108 -4
28 -17 72 -30 100 -18 37 -21 51 -12 57 9 6 9 8 -1 8 -8 0 -10 5 -5 13 4 6 8
17 9 22 0 6 2 16 2 23 1 7 7 10 14 6 7 -5 9 -2 5 9 -8 21 14 39 33 27 12 -8
11 -10 -5 -10 -18 -1 -19 -1 -2 -11 18 -11 41 -3 32 11 -3 4 3 14 13 21 15 13
16 12 4 -3 -9 -11 -10 -18 -2 -23 5 -3 10 -3 10 2 0 4 5 1 11 -7 9 -13 10 -12
5 3 -3 11 0 20 9 23 18 7 20 50 3 68 -7 7 -22 11 -33 9 -11 -2 -14 -1 -7 3 6
3 12 10 12 16 0 13 31 43 44 43 6 1 14 -3 17 -8 3 -5 9 1 12 12 3 12 1 19 -4
15 -5 -3 -9 0 -9 5 0 6 8 11 18 11 14 0 15 2 2 10 -14 9 -7 14 13 11 5 -1 6 3
3 8 -4 5 3 16 14 24 11 7 19 16 17 18 -1 2 13 20 32 39 18 19 30 29 26 21 -6
-10 -4 -12 4 -7 7 5 10 15 7 23 -4 10 -2 13 8 10 11 -4 13 -1 9 10 -4 10 -2
14 4 10 7 -5 9 0 6 12 -3 10 0 22 6 25 5 4 7 14 4 23 -4 9 -2 14 3 10 5 -3 8
12 6 35 -4 32 -2 39 9 32 11 -6 11 -5 0 10 -21 25 -2 39 74 51 11 2 21 4 23 5
1 2 5 3 10 5 4 1 20 7 36 14 23 9 31 9 38 -1 6 -10 8 -9 8 3 0 21 34 31 51 15
7 -7 10 -7 6 0 -4 6 19 19 54 31 54 19 60 19 55 5 -4 -12 -2 -11 9 3 9 11 19
20 23 20 4 0 16 6 26 12 17 9 14 12 -25 17 -24 4 -57 10 -74 13 -16 4 -34 6
-38 5 -5 -1 -4 5 1 15 8 13 3 24 -22 50 -17 19 -31 37 -31 41 0 4 -4 13 -8 20
-6 8 -1 12 15 13 l23 0 -22 9 c-14 6 -20 15 -17 23 6 17 -42 51 -58 41 -6 -4
-8 -3 -4 4 4 7 -8 12 -36 14 -33 2 -42 7 -40 19 4 25 -24 44 -43 29 -22 -18
-18 -35 11 -55 l25 -16 -20 -18 c-23 -20 -29 -37 -8 -25 7 5 7 1 -2 -10 -14
-16 -15 -15 -27 11 -7 15 -13 23 -13 16 -1 -8 -8 -8 -30 0 -22 8 -33 8 -44 -1
-16 -14 -21 -72 -6 -72 6 0 8 -4 5 -9 -3 -4 6 -19 19 -31 18 -17 25 -19 25 -9
0 12 2 11 10 -1 6 -9 10 -11 10 -3 0 8 7 10 18 6 15 -6 16 -5 2 12 -8 10 -10
16 -3 12 6 -4 14 -1 16 5 4 10 6 10 6 0 1 -7 5 -11 10 -8 5 3 8 -2 7 -12 0 -9
5 -16 12 -14 10 2 11 -2 4 -15 -6 -9 -24 -18 -43 -19 -19 -1 -77 -5 -131 -8
-90 -6 -202 -23 -309 -47 -26 -6 -53 -12 -60 -13 -8 -2 -21 -6 -29 -9 -8 -3
-42 -12 -75 -20 -33 -8 -68 -18 -77 -22 -10 -4 -18 -3 -19 1 0 5 -2 38 -4 74
-8 141 -14 166 -51 209 -66 77 -147 76 -224 -2 -46 -48 -69 -54 -132 -31 -60
22 -168 29 -211 15 -62 -21 -140 -134 -149 -216 -1 -16 -7 -33 -13 -37 -6 -5
-5 -8 3 -8 10 0 10 -5 2 -20 -7 -13 -7 -20 -1 -20 6 0 8 -7 5 -15 -4 -8 -10
-13 -14 -10 -5 3 -12 1 -15 -5 -4 -6 -1 -9 6 -8 7 2 13 -5 12 -14 -2 -50 -4
-58 -14 -58 -7 0 -9 10 -7 25 3 13 2 22 -2 20 -8 -5 -19 56 -26 144 -10 139
-26 181 -76 207 -66 34 -176 -7 -221 -84 -12 -20 -22 -41 -24 -47 -1 -5 -4
-21 -7 -35 -11 -48 -16 -96 -21 -195 -3 -55 -7 -109 -9 -120 -3 -11 -5 -32 -5
-46 -1 -23 -4 -25 -33 -21 -18 3 -27 7 -20 9 20 7 14 30 -14 57 -22 20 -31 22
-54 15 -44 -16 -25 -70 35 -105 20 -11 20 -12 1 -33 -11 -11 -23 -21 -28 -21
-19 0 -36 27 -41 66 -3 21 -9 53 -12 69 -4 17 -8 35 -9 40 -1 6 -4 15 -8 20
-3 6 -9 31 -13 55 -4 25 -9 47 -11 49 -2 2 1 10 7 17 7 8 7 14 -1 19 -5 3 -10
17 -10 31 0 14 4 23 9 19 5 -3 13 -1 16 5 4 6 1 9 -7 8 -7 -2 -12 3 -10 11 6
29 5 121 -1 128 -10 10 -8 35 2 28 5 -3 0 14 -13 37 -29 56 -45 64 -93 50 -34
-10 -55 -26 -140 -103 -12 -11 -27 -18 -32 -15 -5 3 -7 -3 -4 -14 4 -14 0 -20
-11 -20 -15 0 -20 17 -19 73 0 9 -4 17 -9 17 -4 0 -8 9 -8 19 0 11 -15 56 -34
100 -18 44 -32 82 -30 85 2 4 1 4 -3 1 -3 -3 -11 5 -18 18 -47 89 -106 162
-140 170 -11 3 -30 2 -41 -3z m1520 -408 c2 -4 -9 -9 -27 -10 -17 -2 -38 -8
-46 -15 -12 -9 -12 -7 1 8 17 21 63 31 72 17z m-1254 -223 c5 -26 13 -64 19
-85 13 -48 14 -64 1 -42 -10 17 -71 271 -69 292 1 16 39 -111 49 -165z m1130
161 c0 -5 -5 -10 -11 -10 -5 0 -7 5 -4 10 3 6 8 10 11 10 2 0 4 -4 4 -10z
m1540 -30 c0 -5 -2 -10 -4 -10 -3 0 -8 5 -11 10 -3 6 -1 10 4 10 6 0 11 -4 11
-10z m-780 -381 c-69 -67 -95 -87 -101 -77 -5 7 -4 14 2 16 6 3 5 10 -2 19
-10 11 -10 19 -1 33 9 14 9 21 0 26 -7 5 -8 2 -3 -7 7 -12 5 -12 -6 -1 -12 11
-12 14 1 22 19 12 33 13 25 1 -3 -5 -1 -13 5 -16 6 -4 10 -3 9 2 -4 21 3 31
19 29 9 -2 20 2 24 7 4 7 12 6 22 -3 14 -11 16 -10 10 6 -5 18 -4 18 11 -1 17
-20 17 -20 11 2 -6 18 -4 21 13 18 11 -2 23 0 26 6 4 5 11 9 17 9 5 0 -32 -41
-82 -91z m-1400 -83 c0 -2 -8 -10 -17 -17 -16 -13 -17 -12 -4 4 13 16 21 21
21 13z m936 -18 c4 -7 3 -8 -4 -4 -12 7 -13 4 -16 -36 -1 -17 -7 -23 -23 -22
-12 0 -20 -3 -17 -7 7 -11 -43 -42 -56 -34 -5 3 -10 -1 -10 -9 0 -9 -6 -16
-13 -16 -21 0 -28 12 -15 27 9 11 7 12 -8 7 -10 -4 -16 -4 -12 1 4 4 3 16 -3
26 -10 19 2 25 40 20 8 -2 10 2 5 10 -5 9 -2 10 9 6 10 -3 17 -2 17 2 0 15 33
22 42 9 6 -10 8 -9 8 4 0 9 10 19 23 21 12 2 23 5 24 6 1 0 5 -4 9 -11z m4
-33 c0 -8 -4 -15 -8 -15 -5 0 -9 7 -9 15 0 8 4 15 9 15 4 0 8 -7 8 -15z m610
-538 c0 -5 -4 -5 -10 -2 -5 3 -10 14 -10 23 0 15 2 15 10 2 5 -8 10 -19 10
-23z m-403 -99 c-3 -7 -5 -2 -5 12 0 14 2 19 5 13 2 -7 2 -19 0 -25z m479 -5
c20 -27 16 -38 -6 -18 -20 18 -26 35 -14 35 4 0 13 -8 20 -17z m-131 -143 c9
-16 12 -30 8 -30 -5 0 -3 -4 2 -8 6 -4 21 -24 33 -45 l22 -38 -22 12 c-13 7
-28 17 -35 23 -33 30 -41 34 -48 28 -4 -4 -6 0 -3 8 3 8 14 14 24 12 15 -2 16
-1 4 7 -8 5 -18 7 -22 5 -4 -3 -8 2 -8 10 0 9 5 16 10 16 6 0 10 5 10 11 0 5
-5 7 -12 3 -7 -4 -8 -3 -4 4 12 19 25 14 41 -18z m-2843 -43 c3 -16 0 -23 -12
-24 -9 -1 -17 5 -17 13 0 8 4 14 8 14 5 0 5 7 2 17 -4 10 -2 14 4 10 6 -4 13
-17 15 -30z"/>
<path d="M3435 3171 c-3 -5 -2 -12 3 -15 5 -3 9 1 9 9 0 17 -3 19 -12 6z"/>
<path d="M4456 3983 c-4 -9 -1 -21 5 -27 9 -8 10 -7 6 5 -3 9 0 22 6 28 8 8 8
11 0 11 -6 0 -14 -8 -17 -17z"/>
<path d="M4495 3980 c3 -5 8 -10 11 -10 2 0 4 5 4 10 0 6 -5 10 -11 10 -5 0
-7 -4 -4 -10z"/>
<path d="M153 3727 c0 -8 6 -14 14 -14 9 0 10 4 2 14 -6 7 -12 13 -14 13 -1 0
-2 -6 -2 -13z"/>
<path d="M293 3685 c0 -7 8 -10 19 -7 10 2 18 6 18 7 0 1 -8 5 -18 7 -11 3
-19 0 -19 -7z"/>
<path d="M366 3662 c-3 -5 1 -9 9 -9 8 0 12 4 9 9 -3 4 -7 8 -9 8 -2 0 -6 -4
-9 -8z"/>
<path d="M436 3647 c3 -10 9 -15 12 -12 3 3 0 11 -7 18 -10 9 -11 8 -5 -6z"/>
<path d="M496 3618 c3 -5 10 -6 15 -3 13 9 11 12 -6 12 -8 0 -12 -4 -9 -9z"/>
<path d="M4847 3604 c-8 -8 40 -104 53 -104 6 0 9 -3 8 -7 -3 -14 90 -104 96
-94 3 5 3 11 -1 13 -16 7 -51 54 -58 77 -5 17 -4 21 5 16 9 -6 9 -3 1 14 -7
11 -17 21 -24 21 -15 1 -50 30 -63 53 -6 10 -13 15 -17 11z m77 -82 c3 -5 -1
-9 -9 -9 -8 0 -12 4 -9 9 3 4 7 8 9 8 2 0 6 -4 9 -8z"/>
<path d="M4791 3587 c-8 -10 -7 -14 2 -14 8 0 14 6 14 14 0 7 -1 13 -2 13 -2
0 -8 -6 -14 -13z"/>
<path d="M4725 3570 c-16 -7 -17 -9 -3 -9 9 -1 20 4 23 9 7 11 7 11 -20 0z"/>
<path d="M4630 3540 c-12 -7 -10 -9 7 -7 12 0 19 5 17 9 -6 10 -6 10 -24 -2z"/>
<path d="M4690 3539 c0 -5 5 -7 10 -4 6 3 10 8 10 11 0 2 -4 4 -10 4 -5 0 -10
-5 -10 -11z"/>
<path d="M4584 3522 c4 -3 14 -7 22 -8 9 -1 13 0 10 4 -4 3 -14 7 -22 8 -9 1
-13 0 -10 -4z"/>
<path d="M4754 3459 c-5 -8 -3 -9 6 -4 7 4 16 2 22 -6 8 -12 9 -12 6 0 -6 20
-24 25 -34 10z"/>
<path d="M4890 3435 c0 -14 4 -25 9 -25 5 0 16 -3 24 -6 13 -5 15 7 8 49 0 4
-10 7 -21 7 -15 0 -20 -7 -20 -25z"/>
<path d="M4815 3350 c4 -6 11 -8 16 -5 14 9 11 15 -7 15 -8 0 -12 -5 -9 -10z"/>
<path d="M4475 3260 c-3 -6 1 -7 9 -4 18 7 21 14 7 14 -6 0 -13 -4 -16 -10z"/>
<path d="M4446 3218 c3 -5 10 -6 15 -3 13 9 11 12 -6 12 -8 0 -12 -4 -9 -9z"/>
<path d="M4853 3175 c-7 -8 -9 -16 -4 -19 5 -3 12 1 15 10 8 22 4 25 -11 9z"/>
<path d="M4705 3168 c-7 -22 2 -123 11 -123 12 0 24 74 18 108 -6 28 -21 36
-29 15z"/>
<path d="M392 2964 c4 -16 1 -20 -11 -17 -23 6 -42 -19 -38 -47 4 -23 26 -42
39 -34 4 3 8 0 8 -5 0 -18 35 -12 58 9 21 20 31 47 13 36 -4 -3 -7 7 -5 23 3
25 1 28 -18 23 -14 -3 -26 1 -36 14 -14 18 -14 18 -10 -2z"/>
<path d="M4687 2942 c-18 -20 -23 -62 -7 -62 5 0 7 -6 4 -14 -8 -21 59 -45 71
-26 4 6 10 8 14 6 4 -3 8 5 8 16 1 12 7 24 12 28 6 3 2 13 -10 24 -17 14 -19
20 -7 33 12 15 11 15 -11 4 -17 -9 -26 -10 -34 -2 -15 15 -21 14 -40 -7z m38
-70 c-3 -3 -11 0 -18 7 -9 10 -8 11 6 5 10 -3 15 -9 12 -12z"/>
<path d="M4557 2923 c-12 -12 -7 -33 7 -33 8 0 13 7 12 15 -3 19 -11 27 -19
18z"/>
<path d="M4900 2921 c0 -6 9 -15 19 -21 16 -8 19 -7 17 8 -3 18 -36 31 -36 13z"/>
<path d="M4398 2853 c-7 -10 -22 -23 -33 -30 -11 -6 -19 -17 -17 -24 2 -7 -3
-16 -10 -20 -10 -7 -9 -9 4 -9 11 0 15 -5 12 -15 -6 -14 6 -20 30 -16 5 1 18
-6 29 -16 19 -17 20 -17 14 -1 -4 11 -2 17 6 15 6 -1 13 9 15 23 2 14 9 31 15
39 10 12 9 14 -5 8 -12 -4 -21 0 -28 14 -6 11 -16 17 -21 13 -7 -4 -7 1 0 15
14 25 7 28 -11 4z m12 -47 c0 -2 -7 -7 -16 -10 -8 -3 -12 -2 -9 4 6 10 25 14
25 6z m15 -46 c3 -5 1 -10 -4 -10 -6 0 -11 5 -11 10 0 6 2 10 4 10 3 0 8 -4
11 -10z"/>
<path d="M4637 2863 c-10 -9 -8 -43 2 -43 5 0 14 7 21 15 17 21 -4 48 -23 28z"/>
<path d="M367 2825 c-7 -18 6 -27 27 -19 13 5 14 9 5 20 -15 18 -25 18 -32 -1z"/>
<path d="M270 2805 c0 -8 7 -15 15 -15 8 0 15 7 15 15 0 8 -7 15 -15 15 -8 0
-15 -7 -15 -15z"/>
<path d="M4560 2800 c0 -5 5 -10 10 -10 6 0 10 5 10 10 0 6 -4 10 -10 10 -5 0
-10 -4 -10 -10z"/>
<path d="M4866 2796 c3 -9 11 -16 16 -16 13 0 5 23 -10 28 -7 2 -10 -2 -6 -12z"/>
<path d="M4937 2804 c-9 -10 4 -34 19 -34 8 0 14 3 14 6 0 10 -27 33 -33 28z"/>
<path d="M350 2740 c0 -5 4 -10 9 -10 6 0 13 5 16 10 3 6 -1 10 -9 10 -9 0
-16 -4 -16 -10z"/>
<path d="M483 2715 c-24 -16 -21 -52 5 -71 38 -28 83 26 56 65 -18 25 -32 26
-61 6z"/>
<path d="M790 2714 c0 -12 -3 -24 -7 -28 -10 -10 -11 -66 -1 -60 4 3 8 0 8 -5
0 -6 9 -11 21 -11 12 0 17 4 13 11 -4 7 0 9 14 5 26 -9 40 23 17 40 -12 9 -13
13 -3 17 7 2 10 7 7 11 -10 10 -40 -5 -32 -17 3 -6 1 -7 -6 -3 -6 4 -9 10 -7
14 2 4 -2 16 -10 27 -14 18 -14 18 -14 -1z"/>
<path d="M4610 2687 c-38 -30 -9 -94 35 -77 13 5 26 6 29 3 5 -6 8 5 9 40 0 6
-3 20 -8 30 -6 15 -10 16 -16 5 -7 -10 -9 -10 -9 0 0 15 -20 15 -40 -1z"/>
<path d="M212 2659 c1 -13 8 -27 13 -31 6 -4 -1 -8 -15 -9 -14 0 -19 -3 -12
-6 6 -2 10 -9 6 -14 -3 -5 0 -9 7 -9 6 0 9 -8 6 -20 -3 -11 -1 -20 4 -20 5 0
9 5 9 12 0 9 3 9 12 0 18 -18 41 -15 34 4 -5 12 0 14 24 10 25 -3 28 -2 21 12
-4 10 -6 23 -4 30 4 11 -9 17 -30 13 -4 -1 -3 8 3 19 7 13 7 20 0 20 -5 0 -10
-4 -10 -10 0 -16 -37 -12 -55 7 -16 15 -17 15 -13 -8z"/>
<path d="M2972 2560 c0 -14 2 -19 5 -12 2 6 2 18 0 25 -3 6 -5 1 -5 -13z"/>
<path d="M3255 2460 c3 -5 8 -10 11 -10 2 0 4 5 4 10 0 6 -5 10 -11 10 -5 0
-7 -4 -4 -10z"/>
<path d="M3573 2445 c-3 -9 -3 -18 -1 -21 3 -3 8 4 11 16 6 23 -1 27 -10 5z"/>
<path d="M3596 2442 c-3 -5 1 -9 9 -9 8 0 12 4 9 9 -3 4 -7 8 -9 8 -2 0 -6 -4
-9 -8z"/>
<path d="M3528 2433 c6 -2 9 -10 6 -15 -4 -7 -2 -8 5 -4 13 9 5 26 -12 25 -9
0 -8 -2 1 -6z"/>
<path d="M2930 2415 c0 -10 7 -15 18 -13 21 4 19 22 -2 26 -10 2 -16 -3 -16
-13z"/>
<path d="M2710 2406 c0 -2 7 -7 16 -10 8 -3 12 -2 9 4 -6 10 -25 14 -25 6z"/>
<path d="M4115 2190 c-3 -5 -1 -10 4 -10 6 0 11 5 11 10 0 6 -2 10 -4 10 -3 0
-8 -4 -11 -10z"/>
<path d="M2984 2158 c-5 -7 0 -9 14 -6 14 4 22 0 25 -13 5 -19 -11 -25 -29
-11 -5 4 -1 -1 9 -10 11 -10 23 -18 27 -18 5 0 7 8 5 18 -2 9 -4 25 -4 35 -1
19 -36 24 -47 5z"/>
<path d="M2776 2123 c-9 -31 -10 -88 -1 -102 4 -8 7 -31 7 -52 -2 -36 20 -61
33 -39 4 6 0 10 -7 10 -9 0 -9 3 -2 8 12 8 12 10 15 92 3 75 -30 133 -45 83z"/>
<path d="M1410 2080 c0 -5 5 -10 10 -10 6 0 10 5 10 10 0 6 -4 10 -10 10 -5 0
-10 -4 -10 -10z"/>
<path d="M4296 2073 c-6 -14 -5 -15 5 -6 7 7 10 15 7 18 -3 3 -9 -2 -12 -12z"/>
<path d="M1406 2045 c-11 -8 -15 -15 -9 -15 6 0 16 7 23 15 16 19 11 19 -14 0z"/>
<path d="M1341 2036 c-9 -11 -9 -16 1 -22 7 -4 10 -4 6 1 -4 4 -3 14 3 22 6 7
9 13 6 13 -2 0 -10 -6 -16 -14z"/>
<path d="M2555 2030 c-4 -6 -11 -7 -17 -4 -7 4 -8 2 -4 -5 6 -9 11 -9 22 0 14
11 18 19 10 19 -3 0 -8 -5 -11 -10z"/>
<path d="M1294 2022 c6 -11 -5 -16 -26 -13 -4 0 -4 -7 -1 -16 5 -12 3 -14 -7
-8 -8 5 -11 4 -6 -3 4 -6 13 -9 22 -5 8 3 12 8 10 11 -3 3 2 10 11 17 13 9 13
14 3 20 -9 5 -11 4 -6 -3z"/>
<path d="M795 1979 c-4 -6 -5 -12 -2 -15 2 -3 7 2 10 11 7 17 1 20 -8 4z"/>
<path d="M4490 1980 c0 -5 5 -10 11 -10 5 0 7 5 4 10 -3 6 -8 10 -11 10 -2 0
-4 -4 -4 -10z"/>
<path d="M1235 1937 c-14 -11 -15 -16 -5 -22 9 -5 11 -4 6 3 -7 11 6 17 27 13
5 -1 6 3 2 9 -8 13 -8 13 -30 -3z"/>
<path d="M4550 1939 c0 -5 5 -7 10 -4 6 3 10 8 10 11 0 2 -4 4 -10 4 -5 0 -10
-5 -10 -11z"/>
<path d="M705 1910 c2 -24 15 -40 15 -17 0 10 0 20 1 24 0 4 -4 9 -9 11 -5 1
-8 -6 -7 -18z"/>
<path d="M1220 1880 c-9 -6 -10 -10 -3 -10 6 0 15 5 18 10 8 12 4 12 -15 0z"/>
<path d="M927 1799 c7 -7 15 -10 18 -7 3 3 -2 9 -12 12 -14 6 -15 5 -6 -5z"/>
<path d="M1240 1755 c-7 -8 -9 -15 -6 -15 4 0 14 7 22 15 9 8 11 15 6 15 -5 0
-15 -7 -22 -15z"/>
<path d="M3100 1751 c0 -22 43 -58 48 -41 2 6 1 22 -2 35 -8 31 -46 35 -46 6z"/>
<path d="M710 1705 c0 -7 30 -13 34 -7 3 4 -4 9 -15 9 -10 1 -19 0 -19 -2z"/>
<path d="M1325 1690 c-3 -5 -4 -18 -1 -28 3 -9 1 -24 -4 -32 -8 -12 -10 -12
-10 -1 0 11 -3 11 -17 0 -10 -9 -14 -9 -10 -2 10 16 -22 53 -45 53 -23 0 -40
-33 -33 -63 6 -23 45 -56 45 -37 0 5 5 10 10 10 6 0 8 -12 6 -26 -8 -41 15
-79 45 -76 3 1 6 -4 7 -11 1 -19 11 -59 15 -64 3 -2 7 8 11 22 8 33 29 32 43
-2 8 -23 9 -15 6 41 -3 54 -2 68 9 64 9 -4 13 4 14 23 1 19 -4 29 -13 29 -8 0
-12 4 -8 10 3 5 -5 20 -17 32 -13 13 -23 32 -23 42 0 22 -20 33 -30 16z m-104
-63 c-10 -9 -11 -8 -5 6 3 10 9 15 12 12 3 -3 0 -11 -7 -18z m99 -101 c0 -2
-8 -10 -17 -17 -16 -13 -17 -12 -4 4 13 16 21 21 21 13z"/>
<path d="M4090 1646 c0 -2 7 -7 16 -10 8 -3 12 -2 9 4 -6 10 -25 14 -25 6z"/>
<path d="M2359 1593 c-13 -16 -12 -17 4 -4 9 7 17 15 17 17 0 8 -8 3 -21 -13z"/>
<path d="M3050 1559 c0 -18 25 -37 36 -27 8 8 -7 36 -22 42 -9 4 -14 -1 -14
-15z"/>
<path d="M3165 1560 c-9 -14 13 -50 30 -50 9 0 14 8 12 18 -6 36 -28 54 -42
32z"/>
<path d="M4069 1523 c-13 -16 -12 -17 4 -4 9 7 17 15 17 17 0 8 -8 3 -21 -13z"/>
<path d="M1333 1348 c1 -26 -2 -44 -7 -40 -6 3 -6 -3 -1 -14 4 -10 10 -36 13
-56 2 -21 8 -38 12 -38 4 0 5 11 3 25 -3 13 -1 37 5 54 6 16 6 33 2 37 -5 5
-13 25 -19 44 l-10 35 2 -47z"/>
<path d="M1226 1322 c-3 -5 1 -9 9 -9 8 0 12 4 9 9 -3 4 -7 8 -9 8 -2 0 -6 -4
-9 -8z"/>
<path d="M3950 1326 c0 -2 7 -7 16 -10 8 -3 12 -2 9 4 -6 10 -25 14 -25 6z"/>
<path d="M2210 1296 c0 -2 8 -10 18 -17 15 -13 16 -12 3 4 -13 16 -21 21 -21
13z"/>
<path d="M1297 1274 c-9 -9 5 -45 17 -41 17 6 19 34 2 40 -8 3 -16 3 -19 1z"/>
<path d="M1060 1139 c-12 -23 -19 -43 -17 -45 6 -6 57 62 57 75 0 24 -21 9
-40 -30z"/>
<path d="M1165 1129 c-6 -8 -4 -10 5 -4 10 6 12 4 6 -11 -6 -15 -5 -17 5 -6 9
9 10 15 2 23 -8 8 -13 7 -18 -2z"/>
<path d="M1110 940 c0 -19 3 -21 12 -12 9 9 9 15 0 24 -9 9 -12 7 -12 -12z"/>
<path d="M1041 884 c0 -11 3 -14 6 -6 3 7 2 16 -1 19 -3 4 -6 -2 -5 -13z"/>
<path d="M1080 849 c0 -11 4 -18 10 -14 5 3 7 12 3 20 -7 21 -13 19 -13 -6z"/>
</g>
</svg>
